<svg
  xmlns="http://www.w3.org/2000/svg"
  xmlnsXlink="http://www.w3.org/1999/xlink"
  width="128"
  height="128"
  version="1.1"
  viewBox="0 0 33.867 33.867"
  xmlSpace="preserve"
  className="c-header-logo"
>
  <defs>
    <linearGradient id="linearGradient12578">
      <stop offset="0" stopColor="#e5316b" stopOpacity="1"></stop>
      <stop offset="0.382" stopColor="#e93767" stopOpacity="0.906"></stop>
      <stop offset="0.669" stopColor="#ec3c63" stopOpacity="0.839"></stop>
      <stop offset="1" stopColor="#fa5252" stopOpacity="0.737"></stop>
    </linearGradient>
    <clipPath clipPathUnits="userSpaceOnUse">
      <path
        fill="#2f2474"
        fillOpacity="1"
        strokeWidth="0.265"
        d="M84.867 145.281l3.037-3.196 1.438-2.557.16-1.599-.16-2.397-3.036-3.196-4.795-.8-5.114-2.077-1.12-.8 1.28-2.077-4.316-.8-3.676-.639-4.315-1.758-3.197-1.918-3.995-3.196-4.156-3.836.64-2.237 2.397-4.156 2.237-3.676 2.078-3.836-1.278-3.676-1.439-2.717-.959-3.356.32-.8 3.037-.798 1.438.32 1.918-.32h1.918l2.877.16h4.635l2.077.479h2.877l1.439.48 2.557 1.278 2.877 1.119 3.196 1.598 1.439.64 2.397.958 1.758.8 2.238.32h1.438l1.918-.8 3.037-1.918 2.717-1.279 2.397-1.278 3.197-.96 3.196-.798 1.279-.48 5.114-.959 3.676-.32h4.156l3.356.16 2.877.32 3.676.8 2.717.479 2.877.959 2.237.959 2.557.48 1.758.638 1.599 1.439v.959l-1.279 3.037-2.237 3.196-2.398 3.676-1.918 2.397-2.557 1.758-2.237 3.197-4.635 4.315-2.717 2.398-3.197 2.237-4.155 1.918-4.476 1.439-3.036.479-1.758.48-1.12.799-1.278 2.237v.8l-2.237.798-2.398-.16-.959.48-1.917.959-1.28.64-1.118 1.438-.32 1.758-.799 1.438.16 2.078.32 1.119 1.598 1.598 1.918 1.758 1.758 1.598 1.758 1.439 1.918.799 2.557.32 1.758.16 2.717.799 1.599.32.799.798 2.078 1.12 1.917 1.118.32.64-.16 1.278-1.438.799-2.238.32h-4.795l-2.876.16-3.037.319-2.078.32h-3.836l-2.717.32-.799-.48-1.598-3.197-.16-2.397-.959-3.197-.959-2.237-.639-2.238-.64-1.438-1.757 3.037-.16 1.278v1.918l.16 1.758-.48 2.078-.959.959-2.397 1.918-2.398 1.119-2.717 1.118-3.356-.32-4.315-.16-3.836-.319h-1.758l-4.315-.799-3.037-.48h-.64v-1.118l1.439-1.279 2.717-2.237 2.717-1.12 3.037-.638h2.077l2.558-.96-.32.64 3.356-.32 2.558-1.278z"
      ></path>
    </clipPath>
    <linearGradient
      id="linearGradient12580"
      x1="58.097"
      x2="86.785"
      y1="167.657"
      y2="151.515"
      gradientTransform="translate(-53.805 -143.282)"
      gradientUnits="userSpaceOnUse"
      xlinkHref="#linearGradient12578"
    ></linearGradient>
  </defs>
  <g>
    <path
      fill="url(#linearGradient12580)"
      fillOpacity="1"
      strokeWidth="0.079"
      d="M4.658 7.335c-.102.455 1.134 3.11 1.134 3.11S3.418 14.24 3.663 14.69c.305.559 2.31 2.101 3.05 2.543.347.208.51.258.774.36.297.115.604.198.908.286.215.062.432.115.65.17.187.05.376.096.565.141.29.07.762.148.87.199.316.147-.83.529-.01.821.35.125.836.507 1.264.59.353.07.906.199 1.234.286.291.078.579.157.812.37.447.407.564 1.008.522 1.555-.036.477-.459.95-.654 1.263-.196.314-.506.628-.506.628s-.708.469-1.102.61c-.399.142-.916.136-1.375.197-.458.062-.964.118-1.376.172-.331.044-1.021.31-1.284.43-.158.072-.34.192-.497.31-.195.146-.367.323-.547.489-.284.262-.247.269-.311.487-.027.093.266.115.266.115l1.122.146s1.4.22 2.106.291c1.011.101 2.042.37 3.043.187a2.9 2.9 0 001.215-.547c.517-.395 1.121-.862 1.26-1.513.069-.325-.292-.63-.266-.962.034-.43.385-.766.53-1.169.057-.156.133-.48.133-.48s.306 1.344.53 1.993c.074.212.22.398.265.618.055.27-.09.567 0 .825.06.169.605 1.367.777 1.36 2.318-.084 1.878.024 5.222-.38 3.85-.465.221-1.69-.447-2.002-.659-.307-1.436-.25-2.105-.533a2.437 2.437 0 01-.571-.352c-.272-.22-.5-.491-.73-.757-.412-.476-1.027-.87-1.16-1.495-.079-.371.105-.766.266-1.108.147-.314.354-.613.621-.825.243-.193.554-.273.845-.37.467-.155 1.095.032 1.434-.335.097-.105-.001-.307.074-.43.234-.378.665-.603 1.068-.77.449-.185.971-.082 1.435-.226a8.623 8.623 0 002.13-1.023c.77-.503 1.44-1.16 2.104-1.804a29.212 29.212 0 002.138-2.346c.63-.76 1.318-1.493 1.781-2.372.312-.592.728-1.84.646-1.908-.057-.116-1.107-.409-1.665-.601-.46-.159-.92-.312-1.384-.456-.418-.13-.83-.288-1.26-.366-.42-.075-.85-.06-1.275-.093-.492-.038-.981-.11-1.474-.121-.52-.013-1.041.007-1.56.052-.538.047-1.074.13-1.605.226-.543.1-1.088.197-1.615.364-.54.172-1.066.399-1.576.652-.607.3-1.18.67-1.759 1.023-.168.103-.633.264-.968.295a1.993 1.993 0 01-.801-.089 2.85 2.85 0 01-.577-.254c-.206-.12-.43-.208-.644-.312l-.69-.331c-.293-.141-.584-.29-.88-.425-.275-.125-.556-.233-.832-.356-.217-.096-.42-.233-.647-.299-.358-.103-.738-.098-1.108-.142-.378-.044-.755-.092-1.135-.121a20.36 20.36 0 00-1.454-.073c-.478-.004-.957-.005-1.432.053-.467.056-1.362.188-1.384.283z"
    ></path>
  </g>
</svg>  

